<svg width="50" height="50" viewBox="0 0 50 50" fill="none" xmlns="http://www.w3.org/2000/svg">
<rect y="0.00012207" width="50" height="50" rx="10" fill="#29CFFF"/>
<path d="M36 31C35.4531 31 34.9531 30.8633 34.5 30.5898C34.0469 30.3164 33.6875 29.9531 33.4219 29.5H33V35.5C33 35.9219 32.8516 36.2773 32.5547 36.5664C32.2578 36.8555 31.9063 37 31.5 37H25.5V36.5781C25.9531 36.3125 26.3164 35.9531 26.5898 35.5C26.8633 35.0469 27 34.5469 27 34C27 33.1719 26.707 32.4648 26.1211 31.8789C25.5352 31.293 24.8281 31 24 31C23.1719 31 22.4648 31.293 21.8789 31.8789C21.293 32.4648 21 33.1719 21 34C21 34.5469 21.1367 35.0469 21.4102 35.5C21.6836 35.9531 22.0469 36.3125 22.5 36.5781V37H16.5C16.0937 37 15.7422 36.8555 15.4453 36.5664C15.1484 36.2773 15 35.9219 15 35.5V29.5H15.4219C15.6875 29.9531 16.0469 30.3164 16.5 30.5898C16.9531 30.8633 17.4531 31 18 31C18.8281 31 19.5352 30.707 20.1211 30.1211C20.707 29.5352 21 28.8281 21 28C21 27.1719 20.707 26.4648 20.1211 25.8789C19.5352 25.293 18.8281 25 18 25C17.4531 25 16.9531 25.1367 16.5 25.4102C16.0469 25.6836 15.6875 26.0469 15.4219 26.5H15V20.5C15 20.0937 15.1484 19.7422 15.4453 19.4453C15.7422 19.1484 16.0937 19 16.5 19H22.5V18.5781C22.0469 18.3125 21.6836 17.9531 21.4102 17.5C21.1367 17.0469 21 16.5469 21 16C21 15.1719 21.293 14.4648 21.8789 13.8789C22.4648 13.293 23.1719 13 24 13C24.8281 13 25.5352 13.293 26.1211 13.8789C26.707 14.4648 27 15.1719 27 16C27 16.5469 26.8633 17.0469 26.5898 17.5C26.3164 17.9531 25.9531 18.3125 25.5 18.5781V19H31.5C31.9063 19 32.2578 19.1484 32.5547 19.4453C32.8516 19.7422 33 20.0937 33 20.5V26.5H33.4219C33.6875 26.0469 34.0469 25.6836 34.5 25.4102C34.9531 25.1367 35.4531 25 36 25C36.8281 25 37.5352 25.293 38.1211 25.8789C38.707 26.4648 39 27.1719 39 28C39 28.8281 38.707 29.5352 38.1211 30.1211C37.5352 30.707 36.8281 31 36 31Z" fill="white"/>
</svg>
